HIERARCHY
ROOT hip
{
	OFFSET 0.000000 0.000000 0.000000 
	CHANNELS 6 Xposition Yposition Zposition Xrotation Zrotation Yrotation
	JOINT abdomen
	{
		OFFSET 0.000000 3.402643 0.000000 
		CHANNELS 3 Xrotation Zrotation Yrotation
		JOINT chest
		{
			OFFSET 0.000000 8.438565 -0.680529 
			CHANNELS 3 Xrotation Zrotation Yrotation
			JOINT neck
			{
				OFFSET 0.000000 10.207942 -0.272212 
				CHANNELS 3 Xrotation Zrotation Yrotation
				JOINT head
				{
					OFFSET 0.000000 3.130431 0.000000 
					CHANNELS 3 Xrotation Zrotation Yrotation
					End Site
					{
						OFFSET 0.000000 3.130435 0.000000 
					}
				}
			}
			JOINT lCollar
			{
				OFFSET 3.470700 6.669187 -0.816635 
				CHANNELS 3 Yrotation Zrotation Xrotation
				JOINT lShldr
				{
					OFFSET 3.198488 0.000000 0.000000 
					CHANNELS 3 Zrotation Yrotation Xrotation
					JOINT lForeArm
					{
						OFFSET 10.139888 0.000000 0.000000 
						CHANNELS 3 Yrotation Zrotation Xrotation
						JOINT lHand
						{
							OFFSET 8.370511 0.000000 0.000000 
							CHANNELS 3 Zrotation Yrotation Xrotation
							End Site
							{
								OFFSET 4.083176 0.000000 0.000000 
							}
						}
					}
				}
			}
			JOINT rCollar
			{
				OFFSET -3.470700 6.669187 -0.816635 
				CHANNELS 3 Yrotation Zrotation Xrotation
				JOINT rShldr
				{
					OFFSET -3.198488 0.000000 0.000000 
					CHANNELS 3 Zrotation Yrotation Xrotation
					JOINT rForeArm
					{
						OFFSET -10.139888 0.000000 0.000000 
						CHANNELS 3 Yrotation Zrotation Xrotation
						JOINT rHand
						{
							OFFSET -8.370511 0.000000 0.000000 
							CHANNELS 3 Zrotation Yrotation Xrotation
							End Site
							{
								OFFSET -4.083176 0.000000 0.000000 
							}
						}
					}
				}
			}
		}
	}
	JOINT lThigh
	{
		OFFSET 5.308129 -1.633274 1.361059 
		CHANNELS 3 Xrotation Zrotation Yrotation
		JOINT lShin
		{
			OFFSET -2.041588 -20.007561 0.000000 
			CHANNELS 3 Xrotation Zrotation Yrotation
			JOINT lFoot
			{
				OFFSET 0.000000 -19.190928 -1.224953 
				CHANNELS 3 Xrotation Yrotation Zrotation
				End Site
				{
					OFFSET 0.000000 -2.449906 4.627600 
				}
			}
		}
	}
	JOINT rThigh
	{
		OFFSET -5.308129 -1.633274 1.361059 
		CHANNELS 3 Xrotation Zrotation Yrotation
		JOINT rShin
		{
			OFFSET 2.041588 -20.007561 0.000000 
			CHANNELS 3 Xrotation Zrotation Yrotation
			JOINT rFoot
			{
				OFFSET 0.000000 -19.190928 -1.224953 
				CHANNELS 3 Xrotation Yrotation Zrotation
				End Site
				{
					OFFSET 0.000000 -2.449906 4.627600 
				}
			}
		}
	}
}
MOTION
Frames: 15
Frame Time: 0.033333
-3.371672 34.577003 -3.479847 0.654297 0.244141 90.341843 30.660566 -9.698592 -4.665598 -41.562500 10.097656 3.701171 -8.603516 0.000000 0.000000 14.101563 4.355469 4.141367 2.000000 -2.000000 0.000000 -2.148437 -7.568359 -2.354800 -3.004423 -1.794122 0.031598 1.756760 -3.283567 0.058713 -2.000000 2.000000 0.000000 5.937500 2.646484 -2.314002 8.131900 1.775781 0.010647 -1.786088 3.264010 0.057537 10.311875 12.900869 21.710777 -3.563533 -4.182736 0.116122 -0.273332 0.013991 -0.015565 12.888664 -12.078818 -17.539965 -2.821213 4.146983 -0.068992 5.175748 -0.020527 0.003526 
-3.313607 34.581150 -3.427370 0.556641 0.429688 91.064529 30.660566 -9.698592 -4.665598 -41.396488 10.283203 3.964844 -8.603516 0.000000 0.000000 14.355470 4.179688 4.004619 2.000000 -2.000000 0.000000 -2.343750 -7.558594 -4.581363 -2.877470 -1.794122 0.031598 1.756760 -3.283567 0.058713 -2.000000 2.000000 0.000000 6.142578 2.822266 -4.521004 8.327212 1.775781 0.010647 -1.786088 3.264010 0.057537 10.361108 13.154671 21.001268 -3.564474 -4.193774 0.136911 -0.467700 -0.036224 0.007017 13.236906 -11.823553 -18.005001 -2.701269 4.131313 -0.098692 4.999981 -0.012699 -0.004193 
-3.242203 34.576271 -3.362446 0.498047 0.527344 91.962898 30.660566 -9.698592 -4.665598 -41.308594 10.478516 4.169922 -8.603516 0.000000 0.000000 14.580077 3.857421 4.062500 2.000000 -2.000000 0.000000 -2.744141 -7.509767 -7.109375 -2.877470 -1.794122 0.031598 1.756760 -3.283567 0.058713 -2.000000 2.000000 0.000000 6.064454 3.134766 -7.030715 7.956119 1.775781 0.010647 -1.786088 3.264010 0.057537 10.282876 13.447581 20.141714 -3.588500 -4.158860 0.165956 -0.560975 -0.066187 -0.046400 13.601630 -11.542808 -18.771803 -2.524798 4.139152 -0.076209 4.814269 -0.039511 -0.013117 
-3.166612 34.561871 -3.296400 0.449219 0.556641 92.920021 30.660566 -9.698592 -4.665598 -41.269531 10.693360 4.306641 -8.603516 0.000000 0.000000 14.707031 3.417969 4.258395 2.000000 -2.000000 0.000000 -3.271484 -7.402343 -9.669225 -2.926298 -1.794122 0.031598 1.756760 -3.283567 0.058713 -2.000000 2.000000 0.000000 5.703125 3.447266 -9.570313 7.096743 1.775781 0.010647 -1.786088 3.264010 0.057537 10.115485 13.710254 19.281176 -3.651908 -4.141947 0.179250 -0.397631 -0.087083 -0.054283 13.885363 -11.298928 -19.660938 -2.316653 4.147891 -0.051557 4.618904 -0.043889 -0.014653 
-3.092109 34.543442 -3.238029 0.449219 0.556641 93.828224 30.660566 -9.698592 -4.665598 -41.250004 10.917969 4.433594 -8.603516 0.000000 0.000000 14.746095 2.851563 4.492674 2.000000 -2.000000 0.000000 -3.750000 -7.343750 -12.130156 -2.838407 -1.794122 0.031598 1.756760 -3.283567 0.058713 -2.000000 2.000000 0.000000 5.185547 3.662110 -12.001328 6.120181 1.775781 0.010647 -1.786088 3.264010 0.057537 9.878577 13.893380 18.442360 -3.722670 -4.144878 0.175420 -0.143126 -0.048198 -0.049694 14.120179 -11.123091 -20.630491 -2.043558 4.147404 -0.041001 4.404054 -0.043363 -0.014568 
-3.020155 34.527821 -3.189873 0.478516 0.566405 94.628998 30.660566 -9.698592 -4.665598 -41.162109 11.171874 4.697266 -8.603516 0.000000 0.000000 14.746093 2.246094 4.697267 2.000000 -2.000000 0.000000 -4.003906 -7.265625 -14.521482 -2.555222 -1.784374 0.031019 1.756760 -3.283567 0.058713 -2.000000 2.000000 0.000000 4.648438 3.681641 -14.354841 5.319400 1.775781 0.010647 -1.786088 3.264010 0.057537 9.733744 14.061466 17.675116 -3.769450 -4.141583 0.187939 0.017853 -0.064188 -0.045222 14.371966 -10.955913 -21.512619 -1.787040 4.135678 -0.050338 4.228447 0.033011 -0.019754 
-2.951252 34.519035 -3.148466 0.498047 0.654297 95.312500 30.660566 -9.698592 -4.665598 -40.986328 11.416017 5.000000 -8.603516 0.000000 0.000000 14.794922 1.777344 4.863584 2.000000 -2.000000 0.000000 -4.091796 -7.207031 -16.895754 -2.320829 -1.794122 0.031598 1.756760 -3.283567 0.058713 -2.000000 2.000000 0.000000 4.111328 3.623047 -16.698601 4.713443 1.774625 0.030138 -1.786088 3.264010 0.057537 9.647302 14.218324 16.889515 -3.780257 -4.144439 0.199284 0.025425 -0.065608 -0.035309 14.668681 -10.768405 -22.262712 -1.660174 4.135576 -0.041627 4.169896 0.020273 -0.013748 
-2.885852 34.516468 -3.107645 0.507812 0.800781 95.966805 30.660566 -9.698592 -4.665598 -40.761719 11.582031 5.265634 -8.603516 0.000000 0.000000 14.941407 1.484375 5.117441 2.000000 -2.000000 0.000000 -4.267578 -7.109375 -19.268785 -2.535673 -1.794122 0.031598 1.756760 -3.283567 0.058713 -2.000000 2.000000 0.000000 3.603516 3.671875 -19.061872 4.127506 1.774625 0.030138 -1.786088 3.264010 0.057537 9.626652 14.403353 16.142742 -3.739832 -4.143085 0.166303 -0.095051 -0.057155 -0.042622 15.037905 -10.537278 -22.924074 -1.645697 4.132138 -0.001025 4.218748 0.012342 -0.016433 
-2.822759 34.517570 -3.062136 0.537109 0.937500 96.640785 30.660566 -9.698592 -4.665598 -40.576172 11.621095 5.312500 -8.603516 0.000000 0.000000 15.185546 1.435547 5.527345 2.000000 -2.000000 0.000000 -4.677734 -6.943359 -21.680864 -3.434110 -1.794122 0.031598 1.756760 -3.283567 0.058713 -2.000000 2.000000 0.000000 3.193360 3.935547 -21.444643 3.473453 1.775203 0.020393 -1.786088 3.264010 0.057537 9.564543 14.584853 15.452516 -3.699599 -4.151898 0.183375 -0.143632 -0.070904 -0.047887 15.376248 -10.301383 -23.583414 -1.697547 4.131289 -0.033911 4.267576 0.015742 -0.025587 
-2.759031 34.520985 -3.009050 0.605469 0.996094 97.373222 30.660566 -9.698592 -4.665598 -40.468750 11.484376 5.166017 -8.603516 0.000000 0.000000 15.478517 1.601563 6.064697 2.000000 -2.000000 0.000000 -5.273437 -6.738281 -24.102707 -4.791533 -1.794122 0.031598 1.756760 -3.283567 0.058713 -2.000000 2.000000 0.000000 3.076172 4.384766 -23.837891 2.955630 1.774625 0.030138 -1.786088 3.264010 0.057537 9.449586 14.723435 14.810118 -3.739097 -4.142721 0.185816 0.017918 -0.052161 -0.019775 15.673440 -10.039297 -24.293385 -1.694790 4.142967 -0.034289 4.277320 -0.013325 -0.004493 
-2.693460 34.527458 -2.946908 0.683594 0.976563 98.134933 30.660566 -9.698592 -4.665598 -40.488281 11.191406 4.921875 -8.603516 0.000000 0.000000 15.800782 1.933594 6.611659 2.000000 -2.000000 0.000000 -5.761718 -6.582031 -26.514790 -5.973417 -1.794700 0.021853 1.756760 -3.283567 0.058713 -2.000000 2.000000 0.000000 3.447266 4.853466 -26.229412 2.955630 1.774625 0.030138 -1.786088 3.264010 0.057537 9.312543 14.850056 14.164539 -3.867815 -4.144971 0.176542 0.394623 -0.059872 -0.032900 15.868277 -9.863112 -25.058113 -1.570207 4.119579 0.005155 4.247941 -0.035214 0.008715 
-2.629622 34.536972 -2.874015 0.761719 0.849612 98.886696 30.660566 -9.698592 -4.665598 -40.595703 10.820313 4.716797 -8.603516 0.000000 0.000000 16.113281 2.324219 6.973053 2.000000 -2.000000 0.000000 -5.849610 -6.513672 -28.925779 -6.393338 -1.794700 0.021853 1.756760 -3.283567 0.058713 -2.000000 2.000000 0.000000 4.335938 5.195312 -28.613281 3.658999 1.775203 0.020393 -1.786088 3.264010 0.057537 9.095506 14.974025 13.473315 -4.033322 -4.135061 0.198120 0.780095 -0.039727 -0.014760 15.879639 -9.695374 -25.769470 -1.220972 4.134202 0.030036 4.140281 -0.049993 -0.016923 
-2.574900 34.547592 -2.788259 0.810547 0.683594 99.541016 30.660566 -9.698592 -4.665598 -40.761719 10.537110 4.659990 -8.603516 0.000000 0.000000 16.367188 2.636719 7.148438 2.000000 -2.000000 0.000000 -5.458984 -6.513672 -31.338999 -5.875760 -1.794700 0.021853 1.756760 -3.283567 0.058713 -2.000000 2.000000 0.000000 5.400391 5.371094 -31.004948 4.752750 1.775203 0.020393 -1.786088 3.264010 0.057537 8.797535 15.165524 12.834510 -4.187753 -4.133611 0.199170 0.985216 -0.037012 -0.034497 15.712468 -9.580187 -26.335777 -0.746798 4.135738 0.055677 3.945312 0.001537 0.000523 
-2.536886 34.558086 -2.688249 0.781250 0.449218 100.078178 30.660566 -9.698592 -4.665598 -40.937500 10.371094 4.697267 -8.603516 0.000000 0.000000 16.523438 2.705078 7.148899 2.000000 -2.000000 0.000000 -4.873047 -6.533203 -33.741344 -4.762236 -1.794122 0.031598 1.756760 -3.283567 0.058713 -2.000000 2.000000 0.000000 6.220703 5.449219 -33.378906 5.622134 1.775781 0.010647 -1.786088 3.264010 0.057537 8.411630 15.383317 12.611990 -4.216295 -4.133013 0.191543 0.985708 -0.029281 -0.021230 15.401563 -9.451445 -26.637852 -0.234669 4.116739 0.064406 3.681639 0.015953 -0.025484 
-2.520886 34.569191 -2.574363 0.703125 0.214844 100.488281 30.660566 -9.698592 -4.665598 -41.025394 10.361329 4.804688 -8.603516 0.000000 0.000000 16.542971 2.480469 7.012142 2.000000 -2.000000 0.000000 -4.404297 -6.513671 -36.142578 -3.590360 -1.794122 0.031598 1.756760 -3.283567 0.058713 -2.000000 2.000000 0.000000 6.542969 5.468750 -35.751019 5.944399 1.775781 0.010647 -1.786088 3.264010 0.057537 7.952864 15.549212 13.169196 -4.033273 -4.135111 0.198123 0.760645 -0.034363 -0.023192 15.020732 -9.304969 -26.734947 0.135786 4.131173 0.120871 3.476561 0.009626 -0.017330 
